<svg width="66" height="52" viewBox="0 0 66 52" fill="none" xmlns="http://www.w3.org/2000/svg">
<path d="M65.9976 16.7692V46.0912C65.9976 49.341 63.346 52 60.1052 52H5.89479C2.65395 52 0.00235697 49.341 0.00235697 46.0912V16.7692C1.10778 17.9888 2.35933 19.0595 3.72166 19.9813C9.83566 24.1553 16.0227 28.3269 22.0259 32.7231C25.1206 35.0133 28.9507 37.8188 32.9646 37.8188H33.0377C37.0516 37.8188 40.8817 35.011 43.9764 32.7231C49.9796 28.3647 56.1667 24.1553 62.316 19.9813C63.6407 19.0571 64.8922 17.9865 65.9976 16.7692ZM65.9976 5.91119C65.9976 10.0474 62.9406 13.777 59.6998 16.0295C53.9535 20.0167 48.1718 24.0064 42.4633 28.0315C40.0686 29.693 36.0193 33.0918 33.0354 33.0918H32.9623C29.9784 33.0918 25.9291 29.6954 23.5344 28.0315C17.8258 24.0064 12.0441 20.0167 6.33555 16.0295C3.72166 14.2568 0 10.0828 0 6.72188C0 3.10331 1.95157 0 5.89244 0H60.1029C63.306 0 65.9953 2.65897 65.9953 5.90882L65.9976 5.91119Z" fill="white"/>
</svg>
