<svg width="83" height="65" viewBox="0 0 83 65" fill="none" xmlns="http://www.w3.org/2000/svg">
<path d="M82.997 20.9615V57.614C82.997 61.6763 79.6625 65 75.5869 65H7.41315C3.33755 65 0.00296407 61.6763 0.00296407 57.614V20.9615C1.39311 22.486 2.96704 23.8244 4.68027 24.9766C12.3691 30.1941 20.1498 35.4086 27.6993 40.9038C31.5911 43.7666 36.4077 47.2735 41.4555 47.2735H41.5474C46.5952 47.2735 51.4119 43.7637 55.3037 40.9038C62.8532 35.4559 70.6339 30.1941 78.3672 24.9766C80.033 23.8214 81.6069 22.4831 82.997 20.9615ZM82.997 7.38898C82.997 12.5592 79.1526 17.2213 75.077 20.0368C67.8506 25.0209 60.5797 30.008 53.4008 35.0393C50.3893 37.1163 45.297 41.3647 41.5445 41.3647H41.4526C37.7001 41.3647 32.6078 37.1192 29.5963 35.0393C22.4173 30.008 15.1464 25.0209 7.96743 20.0368C4.68027 17.821 0 12.6035 0 8.40235C0 3.87914 2.45425 0 7.41019 0H75.5839C79.6121 0 82.9941 3.32371 82.9941 7.38603L82.997 7.38898Z" fill="white"/>
</svg>
