<svg width="65" height="65" viewBox="0 0 65 65" fill="none" xmlns="http://www.w3.org/2000/svg">
<path fill-rule="evenodd" clip-rule="evenodd" d="M12 0C5.37259 0 0 5.37259 0 12V53C0 59.6274 5.37259 65 12 65H53C59.6274 65 65 59.6274 65 53V12C65 5.37259 59.6274 0 53 0H12ZM52.5714 26.9545V47.6818C52.5714 48.1406 52.1696 48.5455 51.7143 48.5455H12.2857C11.8304 48.5455 11.4286 48.1406 11.4286 47.6818V26.9545C11.9911 27.6023 12.6071 28.196 13.2768 28.7358C17.1071 31.7045 20.9643 34.7273 24.6875 37.858C26.6964 39.5582 29.1875 41.6364 31.9732 41.6364H32.0268C34.8125 41.6364 37.3036 39.5582 39.3125 37.858C43.0357 34.7273 46.8929 31.7045 50.7232 28.7358C51.3929 28.196 52.0089 27.6023 52.5714 26.9545ZM52.5757 19.0684C52.5735 19.1562 52.5714 19.2398 52.5714 19.3168C52.5714 21.6108 50.375 24.6065 48.6339 25.983C45.0446 28.8168 41.4554 31.6776 37.8929 34.5383C37.6768 34.715 37.434 34.9223 37.1711 35.1468C35.7065 36.3972 33.6164 38.1818 32.0268 38.1818H31.9732C30.3836 38.1818 28.2935 36.3972 26.8289 35.1468C26.566 34.9223 26.3232 34.715 26.1071 34.5383C22.5446 31.6776 18.9554 28.8168 15.3661 25.983C12.9554 24.0668 11.4286 21.3949 11.4286 18.3182C11.4286 17.8594 11.8304 17.4545 12.2857 17.4545H51.7143C52.6161 17.4545 52.5928 18.3866 52.5757 19.0684ZM56 47.6818V18.3182C56 15.9432 54.0714 14 51.7143 14H12.2857C9.92856 14 8 15.9432 8 18.3182V47.6818C8 50.0568 9.92856 52 12.2857 52H51.7143C54.0714 52 56 50.0568 56 47.6818Z" fill="white"/>
</svg>
