<svg width="65" height="65" viewBox="0 0 65 65" fill="none" xmlns="http://www.w3.org/2000/svg">
<path d="M32.4973 0.00277657C50.4415 0.00277657 65 14.9261 65 33.3201C65 48.0269 55.6907 60.5208 42.7817 64.9465C41.1322 65.2491 40.539 64.2079 40.539 63.3417C40.539 62.2561 40.5823 58.6578 40.5823 54.1878C40.5823 51.0643 39.5666 49.068 38.383 48.0269C45.6203 47.2023 53.2367 44.3814 53.2367 31.5848C53.2367 27.9393 51.9664 24.9907 49.8944 22.6474C50.2329 21.7784 51.3326 18.3967 49.5558 13.7989C46.8472 12.9299 40.6257 17.225 40.6257 17.225C38.0444 16.4865 35.2519 16.0978 32.5 16.0978C29.7481 16.0978 26.9556 16.4893 24.3743 17.225C24.3743 17.225 18.1528 12.9299 15.4442 13.7989C13.6674 18.3967 14.7671 21.7812 15.1056 22.6474C13.0309 24.9907 11.7633 27.9393 11.7633 31.5848C11.7633 44.3397 19.3391 47.2023 26.5764 48.0269C25.6446 48.8959 24.7996 50.3702 24.5016 52.4941C22.6381 53.3632 17.8982 54.8375 15.065 49.7177C13.2882 46.5498 10.0704 46.2916 10.0704 46.2916C6.89599 46.2472 9.85915 48.3295 9.85915 48.3295C11.9745 49.3262 13.4561 53.1883 13.4561 53.1883C15.3602 59.1326 24.4177 57.1363 24.4177 57.1363C24.4177 59.9128 24.461 62.5143 24.461 63.3389C24.461 64.2079 23.8678 65.2491 22.2183 64.9437C9.30932 60.5181 0 48.0241 0 33.3173C0 14.9234 14.5585 0 32.5027 0L32.4973 0.00277657ZM12.3104 47.8519C12.3944 47.677 12.2671 47.4605 12.0152 47.3327C11.7606 47.2467 11.5493 47.2883 11.4653 47.4188C11.3814 47.5937 11.5087 47.8103 11.7606 47.938C11.9718 48.0685 12.2264 48.0241 12.3104 47.8519ZM13.6213 49.329C13.792 49.1985 13.7486 48.8959 13.5374 48.6349C13.3261 48.4183 13.0309 48.3323 12.8602 48.5044C12.6896 48.6349 12.7329 48.9375 12.9442 49.1985C13.1555 49.4151 13.4507 49.5011 13.6213 49.329ZM14.8917 51.2808C15.1029 51.1059 15.1029 50.7616 14.8917 50.4562C14.721 50.1536 14.3852 50.0231 14.1712 50.1952C13.9599 50.3257 13.9599 50.6728 14.1712 50.9754C14.3824 51.2781 14.721 51.4113 14.8917 51.2808ZM16.6685 53.1022C16.8391 52.9273 16.7524 52.5386 16.4978 52.2776C16.2026 51.9749 15.8207 51.9305 15.6501 52.1471C15.4388 52.322 15.5228 52.7107 15.8207 52.9717C16.1159 53.2743 16.4978 53.3187 16.6685 53.1022ZM19.0818 54.1878C19.1658 53.9268 18.9112 53.6242 18.532 53.4937C18.1934 53.4076 17.8115 53.5381 17.7275 53.7963C17.6436 54.0545 17.8982 54.3599 18.2774 54.446C18.6159 54.5765 18.9978 54.446 19.0818 54.185V54.1878ZM21.747 54.4043C21.747 54.1017 21.4085 53.8851 21.0265 53.9268C20.6446 53.9268 20.3494 54.1433 20.3494 54.4043C20.3494 54.707 20.6446 54.9235 21.0699 54.8819C21.4518 54.8819 21.747 54.6653 21.747 54.4043ZM24.201 53.9712C24.1576 53.7102 23.8191 53.5381 23.4399 53.5797C23.058 53.6658 22.8061 53.9268 22.8467 54.2294C22.89 54.4904 23.2286 54.6625 23.6078 54.5765C23.987 54.4904 24.2416 54.2322 24.201 53.9712Z" fill="white"/>
</svg>
