<svg width="65" height="65" viewBox="0 0 65 65" fill="none" xmlns="http://www.w3.org/2000/svg">
<path d="M21.9619 45.3646C22.0458 45.2373 22.0052 44.9827 21.8346 44.8148C21.6233 44.6442 21.3687 44.6035 21.2415 44.7308C21.1575 44.8581 21.1981 45.1127 21.3687 45.2806C21.58 45.4512 21.8346 45.4919 21.9619 45.3646ZM20.7783 43.6285C20.651 43.4579 20.4398 43.374 20.2719 43.4579C20.1446 43.5419 20.1446 43.7965 20.2719 43.9644C20.4425 44.1756 20.6537 44.2596 20.7783 44.1756C20.9056 44.0917 20.9056 43.8398 20.7783 43.6285ZM19.0423 41.9358C19.0856 41.8519 18.999 41.6812 18.831 41.5973C18.7037 41.554 18.5358 41.554 18.4925 41.6812C18.4085 41.8085 18.4925 41.9358 18.6631 42.0198C18.8337 42.0631 18.999 42.0631 19.0423 41.9358ZM19.9306 42.9108C20.0146 42.8269 20.0146 42.6156 19.8467 42.4883C19.7194 42.3177 19.5081 42.2771 19.4242 42.361C19.2969 42.4883 19.3402 42.6562 19.4675 42.8269C19.5948 42.9542 19.8033 43.0381 19.9306 42.9108ZM23.5706 46.085C23.614 45.9144 23.4433 45.7031 23.1888 45.6192C22.9342 45.5352 22.7229 45.6192 22.639 45.7898C22.5956 45.9604 22.7662 46.1717 23.0208 46.2556C23.2754 46.3396 23.4867 46.2556 23.5706 46.085ZM25.3473 46.2123C25.3473 46.0417 25.136 45.8737 24.8408 45.8737C24.5862 45.8737 24.4183 46.0444 24.4183 46.2123C24.4183 46.3802 24.6296 46.5508 24.8842 46.5508C25.1387 46.5508 25.3473 46.3802 25.3473 46.2123ZM26.9994 45.9144C26.956 45.7437 26.7042 45.6598 26.4496 45.7031C26.195 45.7465 26.0271 45.9144 26.0677 46.085C26.1083 46.2556 26.3223 46.3802 26.5742 46.3396C26.826 46.299 26.9967 46.085 26.9967 45.9171L26.9994 45.9144ZM54.1667 32.5C54.1667 20.5237 44.4762 10.8333 32.5 10.8333C20.5237 10.8333 10.8333 20.5237 10.8333 32.5C10.8333 42.0631 17.0544 50.1881 25.6452 53.0671C26.7448 53.2783 27.1267 52.6012 27.1267 52.0081C27.1267 51.5017 27.1267 49.809 27.0833 47.989C27.0833 47.989 21.0735 49.2998 19.8033 45.4079C19.8033 45.4079 18.831 42.9108 17.3902 42.2771C17.3902 42.2771 15.4429 40.9229 17.5608 40.9229C17.5608 40.9229 19.676 41.0935 20.8623 43.1654C22.7662 46.5075 25.9404 45.5352 27.1673 44.9854C27.3785 43.5879 27.9283 42.6156 28.5648 42.0658C23.7412 41.516 18.6631 39.6527 18.6631 31.3598C18.6631 28.99 19.5108 27.086 20.9056 25.5612C20.6944 25.0115 19.9333 22.8096 21.1169 19.806C22.9369 19.2562 27.0833 22.0485 27.0833 22.0485C28.8194 21.5421 30.6394 21.3281 32.5 21.3281C34.3606 21.3281 36.1806 21.5394 37.9167 22.0485C37.9167 22.0485 42.0631 19.2562 43.8831 19.806C45.0694 22.8096 44.3056 25.0115 44.0944 25.5612C45.4919 27.0833 46.3369 28.99 46.3369 31.3598C46.3369 39.696 41.2587 41.516 36.4352 42.0658C37.1962 42.7429 37.9167 44.0538 37.9167 46.085C37.9167 48.9613 37.8733 51.2904 37.8733 52.0108C37.8733 52.604 38.2552 53.281 39.3548 53.0698C47.9456 50.1935 54.1667 42.0685 54.1667 32.5027V32.5ZM65 12.1875V52.8125C65 59.54 59.54 65 52.8125 65H12.1875C5.46 65 0 59.54 0 52.8125V12.1875C0 5.46 5.46 0 12.1875 0H52.8125C59.54 0 65 5.46 65 12.1875Z" fill="white"/>
</svg>
