<svg width="65" height="65" viewBox="0 0 65 65" fill="none" xmlns="http://www.w3.org/2000/svg">
<path d="M10.029 54.4212H19.8033V25.0521H10.029V54.4212ZM20.4398 15.9954C20.3965 13.1192 18.3246 10.9173 14.9798 10.9173C11.635 10.9173 9.43583 13.1165 9.43583 15.9954C9.43583 18.7877 11.551 21.0735 14.8525 21.0735H14.8958C18.3246 21.0735 20.4398 18.7877 20.4398 15.9954ZM45.1967 54.4212H54.971V37.5781C54.971 28.5648 50.1475 24.375 43.7152 24.375C38.4692 24.375 36.14 27.2946 34.8698 29.3258H34.9537V25.0521H25.1794C25.1794 25.0521 25.3067 27.8037 25.1794 54.4212H34.9537V38.0033C34.9537 37.1556 34.9971 36.2673 35.249 35.6335C35.9694 33.8975 37.5754 32.0775 40.2837 32.0775C43.7965 32.0775 45.194 34.7425 45.194 38.721L45.1967 54.4212ZM65 12.1875V52.8125C65 59.54 59.54 65 52.8125 65H12.1875C5.46 65 0 59.54 0 52.8125V12.1875C0 5.46 5.46 0 12.1875 0H52.8125C59.54 0 65 5.46 65 12.1875Z" fill="white"/>
</svg>
