<svg width="75" height="65" viewBox="0 0 75 65" fill="none" xmlns="http://www.w3.org/2000/svg">
<path d="M72.4368 28.7358L58.2746 4.728C57.0553 2.66232 54.0072 0.917969 51.5686 0.917969H23.2442C20.8057 0.917969 17.7575 2.61642 16.5382 4.728L2.376 28.7358C1.15673 30.8014 1.15673 34.2442 2.376 36.3099L16.5382 60.3177C17.7575 62.3834 20.8057 64.1277 23.2442 64.1277H51.5686C54.0072 64.1277 57.0553 62.4293 58.2746 60.3177L72.4368 36.3099C73.703 34.1983 73.703 30.8014 72.4368 28.7358Z" fill="#6DB33F"/>
<path d="M17.7107 55.6816C19.2905 55.6816 20.5713 54.4279 20.5713 52.8814C20.5713 51.335 19.2905 50.0813 17.7107 50.0813C16.1308 50.0813 14.8501 51.335 14.8501 52.8814C14.8501 54.4279 16.1308 55.6816 17.7107 55.6816Z" fill="white"/>
<path d="M65.6841 44.7104C57.3837 55.5437 39.6575 51.8714 28.3089 52.4222C28.3089 52.4222 26.2925 52.5141 24.276 52.8354C24.276 52.8354 25.0263 52.5141 26.0111 52.1927C33.9832 49.4844 37.7348 48.9336 42.6119 46.5006C51.7094 41.9561 60.7601 31.995 62.6359 21.6666C59.1657 31.5819 48.6144 40.1659 39.0478 43.6087C32.4826 45.9957 20.6182 48.2909 20.6182 48.2909L20.1492 48.0614C11.9895 44.2513 11.7551 27.0833 26.4331 21.5748C32.8577 19.1419 39.0478 20.4731 45.9883 18.8665C53.3977 17.1221 61.9794 11.7054 65.4965 4.59033C69.3888 15.9745 74.0783 33.7393 65.6841 44.7104Z" fill="white"/>
<path d="M65.4965 4.59028C69.3887 15.9745 74.1251 33.7393 65.684 44.7103C60.4787 51.5041 51.5687 52.6058 42.8463 52.6058C38.7195 52.6058 34.6397 52.3763 31.0288 52.3763C30.0909 52.3763 29.1999 52.3763 28.3558 52.4222C28.3558 52.4222 26.3393 52.514 24.3228 52.8353C24.3228 52.8353 25.0731 52.514 26.0579 52.1927C34.0301 49.4843 37.7816 48.9335 42.6587 46.5006C51.7563 41.9561 60.807 31.9949 62.6828 21.6666C59.2126 31.5818 48.6612 40.1658 39.0947 43.6086C32.5294 45.9956 20.665 48.2908 20.665 48.2908L20.1961 48.0613C11.9895 44.2513 11.755 27.0832 26.4331 21.5747C32.8577 19.1418 39.0478 20.473 45.9882 18.8664C53.3976 17.168 61.9794 11.7054 65.4965 4.59028ZM65.7309 0.963867L64.2303 3.99353C60.7132 11.1545 52.1314 16.0204 45.66 17.5352C42.7525 18.2238 39.8919 18.3615 37.172 18.4992C33.5611 18.6828 29.8095 18.8664 25.9641 20.2894C16.9134 23.6863 13.4432 31.1228 13.2088 36.9526C12.9743 42.5069 15.4128 47.3269 19.3989 49.3007C19.6333 49.4384 20.1492 49.7139 20.5712 49.7139H21.1809L21.2747 49.6221C23.9946 49.0712 33.7018 47.0514 39.5167 44.9858C43.5497 43.5168 48.0985 41.038 52.2252 37.7329C49.1771 40.9003 45.6131 43.5627 42.0022 45.353C39.0478 46.8219 36.5155 47.6023 32.9984 48.6581C30.935 49.2548 28.5434 49.9893 25.6359 50.9533C24.6042 51.2746 23.8539 51.6418 23.807 51.6418L22.7753 53.7075L24.6042 54.2584C26.5269 53.937 28.4496 53.8452 28.4965 53.8452C29.2937 53.7993 30.1378 53.7993 31.0757 53.7993C32.8108 53.7993 34.6397 53.8452 36.5624 53.937C38.6257 53.9829 40.736 54.0747 42.8932 54.0747C51.5687 54.0747 61.1821 53.0649 66.8564 45.6284C73.4686 36.9985 73.5155 23.4568 66.9033 4.22305L65.7309 0.963867Z" fill="#6DB33F"/>
</svg>
